<svg width="30" height="30" viewBox="0 0 30 30" fill="none" xmlns="http://www.w3.org/2000/svg">
<path fill-rule="evenodd" clip-rule="evenodd" d="M14 2C14 0.895431 13.1045 0 12 0H2C0.89543 0 0 0.89543 0 2V28C0 29.1046 0.895432 30 2 30L5.99998 30C7.10454 30 7.99998 29.1046 7.99998 28V18C7.99998 17.4477 8.44769 17 8.99998 17C9.55226 17 9.99998 17.4477 9.99998 18V28C9.99998 29.1046 10.8954 30 12 30L18 30C19.1045 30 20 29.1046 20 28V18C20 17.4477 20.4477 17 21 17C21.5523 17 22 17.4477 22 18V28C22 29.1046 22.8954 30 24 30L28 30C29.1046 30 30 29.1046 30 28V2C30 0.895431 29.1046 0 28 0H18C16.8954 0 16 0.895431 16 2V10C16 10.5523 15.5523 11 15 11C14.4477 11 14 10.5523 14 10V2Z" fill="white"/>
</svg>
