<svg width="30" height="30" viewBox="0 0 30 30" fill="none" xmlns="http://www.w3.org/2000/svg">
<path fill-rule="evenodd" clip-rule="evenodd" d="M30 2C30 0.895431 29.1046 0 28 0H2C0.895431 0 0 0.895431 0 2V17C0 18.1046 0.89543 19 2 19L14 19C14.5523 19 15 19.4477 15 20C15 20.5523 14.5523 21 14 21L2 21C0.89543 21 0 21.8954 0 23V28C0 29.1046 0.89543 30 2 30H28C29.1046 30 30 29.1046 30 28L30 13C30 11.8954 29.1046 11 28 11L16 11C15.4477 11 15 10.5523 15 10C15 9.44772 15.4477 9 16 9L28 9C29.1046 9 30 8.10457 30 7V2Z" fill="white"/>
</svg>
